<svg xmlns="http://www.w3.org/2000/svg" width="2454" height="1292" version="1">
  <g fill="none" fill-rule="evenodd">
    <path fill="#97A5AB" d="M647 884l128-269h2v246h1a150 150 0 0 1 120-53 175 175 0 0 1 136 61c16 19 28 41 37 66a238 238 0 0 1 0 158c-8 25-20 47-37 67a174 174 0 0 1-138 64c-26-1-51-6-74-17s-51-26-64-46l-111 51V884zm1402 237l-48 99a239 239 0 0 1-92-8 103 103 0 0 1-67-73c-4-17-7-36-7-57V916h-63l62-97 128-104v104h92v97h-92v150c0 19 3 32 10 42 7 9 20 13 39 13l20-1 18-5v6zm336-707h-194c1 11 5 21 10 30a103 103 0 0 0 84 44c21 0 38-4 53-11l25-17-60 126-19 2c-30 0-58-5-84-14s-49-23-69-41c-20-17-35-39-47-65-11-26-17-55-17-88 0-32 6-61 17-88a197 197 0 0 1 112-108 230 230 0 0 1 164-1 174 174 0 0 1 93 88l-68 143zM959 1014c0-13-2-25-6-37a93 93 0 0 0-47-55c-11-5-25-8-40-8a87 87 0 0 0-69 31 105 105 0 0 0-26 70 106 106 0 0 0 26 69 87 87 0 0 0 69 32 89 89 0 0 0 87-65c4-12 6-24 6-37zm601 0c0 32-6 61-18 87-11 26-27 48-47 67a236 236 0 0 1-238 42 198 198 0 0 1-117-109c-12-26-17-55-17-87s5-61 17-87a195 195 0 0 1 117-107 249 249 0 0 1 238 41c20 18 36 40 47 66 12 26 18 55 18 87zm-125 0a112 112 0 0 0-25-69c-8-9-17-17-29-23-12-5-25-8-40-8a89 89 0 0 0-69 31c-8 9-14 20-18 32a119 119 0 0 0 0 74c4 12 10 23 18 33a87 87 0 0 0 70 32 87 87 0 0 0 70-32 119 119 0 0 0 24-70zm-399-735v150c0 18 3 32 10 41s20 14 39 14c6 0 13 0 20-2l18-4 1 95a214 214 0 0 1-75 11c-26 0-48-3-66-9a103 103 0 0 1-67-73c-4-17-7-36-7-57V279h-63l62-98 128-103v103h92v98h-92zm386 305c-8 21-16 39-26 55s-22 30-35 41-29 20-47 26c-19 6-40 9-65 9a309 309 0 0 1-71-9l63-33c33-18 45-55 52-72l12-32-161-388h141l87 253h3l78-253h134l-165 403zm617-207c0 27-4 53-12 79-9 25-21 47-37 66a174 174 0 0 1-207 49c-21-9-38-23-50-40h-2v681h-129V181h123v49h2a160 160 0 0 1 126-60 177 177 0 0 1 173 128c9 25 13 51 13 79zm-123 0c0-13-2-25-6-38-4-12-10-22-18-32a88 88 0 0 0-69-31 87 87 0 0 0-69 32 105 105 0 0 0-26 69 106 106 0 0 0 26 70c8 9 18 17 30 23 11 6 25 9 39 9a86 86 0 0 0 69-32c8-10 14-20 18-33 4-12 6-25 6-37zm442-44c0-20-6-38-19-53s-33-22-58-22c-13 0-25 2-35 6a80 80 0 0 0-47 40c-4 10-7 19-8 29h167z"/>
    <path fill="#0A78C3" stroke="#979797" d="M857 2L1 797h259L21 1290l833-773H597L857 2z"/>
  </g>
</svg>
